/* XPM */
static char *result[] = {
/* columns rows colors chars-per-pixel */
"24 24 11 1 ",
"  c black",
"* c #980000",
"; c #D03800",
": c #A06800",
"t c #D8B000",
"y c #F8F000",
"p c #F88058",
"z c #485890",
"b c #0000",
"Y c #F8F8F8",
"I c #B8C8F0",
/* pixels */
"bbbbbbbbbbbbbbbbbbbbbbbb",
"bbbbbbbbbbbbbbbbbbbbbbbb",
"bbbbbbbbbbbbb    bbbbbbb",
"bbbbbbbbbbbb ;pp; bbbbbb",
"bbbbbbbbbbb ;pppp; bbbbb",
"bbbbbbbbbbb pppppp  bbbb",
"bb;bbbbbbb ;pppp;pp; bbb",
"bbb;bbbbbb ;ppp Yppp; bb",
"bbb;;bbbbb ;ppz  pppp bb",
"bb;y;;bbb ;ppp;z ppp; bb",
"b;yy;bbb ;pppppppp;* bbb",
"bpyypbbb ;pppppp;;*  bbb",
"bbbYpbbb pppp;pppp; bbbb",
"bb p bb ;pp*pp;t   bbbbb",
"bb p bb ;pp*;p;y bbbbbbb",
"bb p bb ;p;;*p;t bbbbbbb",
"bbb p  *;;;;**t: bbbbbbb",
"bbb ;pp;*;ppp;: bbbbbbbb",
"bbbb ;;; *;ppp;I bbbbbbb",
"bbbbbbb   *;p;  bbbbbbbb",
"bbbbbbbbb ;;;* bbbbbbbbb",
"bbbbbbbbbb  ppY bbbbbbbb",
"bbbbbbbbbbbb   bbbbbbbbb",
"bbbbbbbbbbbbbbbbbbbbbbbb",
"bbbbbbbbbbbbbbbbbbbbbbbb",