/* XPM */
static char *result[] = {
/* columns rows colors chars-per-pixel */
"24 24 10 1 ",
"  c black",
"* c #980000",
"; c #D03800",
": c #A06800",
"t c #D8B000",
"y c #F8F000",
"p c #F88058",
"z c #485890",
"b c #0000",
"Y c #F8F8F8",
/* pixels */
"bbbbbbbbbbbbbbbbbbbbbbbb",
"bbbbbbbbbbbbbbbbbbbbbbbb",
"bbbbbbbbb     bbbbbbbbbb",
"bbbbbbbb ;ppp; bbbbbbbbb",
"bbbbbbb ;ppppp; bbbbbbbb",
"bbbbbbb ppppppp bbbbbbbb",
"bbbbbb ;ppppppp; bbbbbbb",
"bbbbbb ppppppppp bbbbbbb",
"bbbbbb ppppppppp bbbbbbb",
"bbbbbb ;ppppppp; bbbbbbb",
"bbbbbbb ;ppppp; bbbbbbbb",
"bbbbbb ;;pppppp; bbbbbbb",
"bbbbb pp;pppppppp bbbbbb",
"bbbb p;yp;ppppp ;p bbbbb",
"bbbb ;;yy;ppppp; ; bbbbb",
"bbbbb ;py;ppppp;  bbbbbb",
"bbbbb p;Y;pppp;p; bbbbbb",
"bbbbb p p pppp;;p bbbbbb",
"bbbb Y; p ppp;;*;Y bbbbb",
"bbbbb p p ;pp; ;p bbbbbb",
"bbbbbb  ;p p;    bbbbbbb",
"bbbbbbb ;ppp; bbbbbbbbbb",
"bbbbbbbb ;;; bbbbbbbbbbb",
"bbbbbbbbb   bbbbbbbbbbbb",
"bbbbbbbbbbbbbbbbbbbbbbbb",