/* XPM */
static char *result[] = {
/* columns rows colors chars-per-pixel */
"24 24 17 1 ",
"  c black",
"* c #980000",
"; c #D03800",
": c #A06800",
"t c #D8B000",
"a c #F8F000",
"p c #F88058",
"z c #485890",
"b c #0000",
"A c #F8F8F8",
"e c #42944A",
"f c #5ABD4A",
"g c #63D66B",
"h c #6BAD29",
"k c #94C618",
"m c #529C39",
"o c #9CD65A",
/* pixels */
"efegeefehhmmmmeemeefmgfh",
"fmgfhmfemhkhgeefemfemfef",
"megfhmfee     meemehmefe",
"eefmkeee ;ppp; kgmmmhmfe",
"meehhee ;ppppp; femhkkee",
"hhmeege ppppppp fefmhmme",
"mkhmgf ;ppppppp; egemmff",
"emmege ppppppppp hfffmme",
"emhmfe ppppppppp eeehhme",
"ehheee ;ppppppp; mehhkhf",
"mhkheme ;ppppp; eegkkmee",
"hkokhm ;;pppppp; gfehmme",
"hmmfm pp;pppppppp eefeem",
"mmeg p;ap;ppppp ;p fgmhe",
"hhmf ;;aa;ppppp; ; gfmmh",
"mhmeg ;pa;ppppp;  efhmem",
"emmmf p;A;pppp;p; heeeee",
"mghhm p p pppp;;p hmheem",
"mfgm A; p ppp;;*;A kmfem",
"mmgem p p ;pp; ;p hmegme",
"gmefme  ;p p;    memgemf",
"gemfeme ;ppp; egeeeegmef",
"egmemmef ;;; mgehokefeee",
"mgmmmhmfh   fmgefmmfemhe",