/* XPM */
static char *result[] = {
/* columns rows colors chars-per-pixel */
"32 32 10 1 ",
"  c black",
"* c #980000",
"; c #D03800",
": c #A06800",
"t c #D8B000",
"y c #F8F000",
"p c #F88058",
"z c #485890",
"b c #00FF00",
"Y c #F8F8F8",
/* pixels */
"bbbbbbbbbbbbbbbbbbbbbbbbbbbbbbbb",
"bbbbbbbbbbbbbbbbbbbbbbbbbbbbbbbb",
"bbbbbbbbbbbbbbbbbbbbbbbbbbbbbbbb",
"bbbbbbbbbbbbbbbbbbbbbbbbbbbbbbbb",
"bbbbbbbbbbbbbbbbbbbbbbbbbbbbbbbb",
"bbbbbbbbb;bbbbbbbbbbbbbbbbbbbbbb",
"bbbbbbbb;bbbbbbbbbbbbbbbbbbbbbbb",
"bbbbbbb;;;bbbb     bbbbbbbbbbbbb",
"bbbbbbb;;y;bb ;ppp; bbbbbbbbbbbb",
"bbbbbbb;pp;b ;ppppp; bbbbbbbbbbb",
"bbbbbbbppypb ppppppp bbbbbbbbbbb",
"bbbbbbppyyp ;ppppppp; bbbbbbbbbb",
"bbbbbbbpYpb Y pppppY  bbbbbbbbbb",
"bbbbbbb p b   ppppp   bbbbbbbbbb",
"bbbbbbb ; b z ppppp z  bbbbbbbbb",
"bbbbbbb ; b ppppppppp  bbbbbbbbb",
"bbbbbbb ;;  ;ppppppp;  bbbbbbbbb",
"bbbbbbbb  ;p ;ppppp; p; bbbbbbbb",
"bbbbbbbb ;p;* *;;;* *;p; bbbbbbb",
"bbbbbbbb p; ;;     ;; ;p bbbbbbb",
"bbbbbbbbb   ;tt:::::;   bbbbbbbb",
"bbbbbbbbbb *;tytttt:;* bbbbbbbbb",
"bbbbbbbbbb ;p*tytt:*p; bbbbbbbbb",
"bbbbbbbbbbb ***:::*** bbbbbbbbbb",
"bbbbbbbbbb ;p;;   ;;p; bbbbbbbbb",
"bbbbbbbbbb Y Y bbb Y Y bbbbbbbbb",
"bbbbbbbbbb  b bbbbb b bbbbbbbbbb",
"bbbbbbbbbbbbbbbbbbbbbbbbbbbbbbbb",
"bbbbbbbbbbbbbbbbbbbbbbbbbbbbbbbb",
"bbbbbbbbbbbbbbbbbbbbbbbbbbbbbbbb",
"bbbbbbbbbbbbbbbbbbbbbbbbbbbbbbbb",
"bbbbbbbbbbbbbbbbbbbbbbbbbbbbbbbb",
"bbbbbbbbbbbbbbbbbbbbbbbbbbbbbbbb",