/* XPM */
static char *result[] = {
/* columns rows colors chars-per-pixel */
"32 32 11 1 ",
"  c black",
"* c #980000",
"; c #D03800",
": c #A06800",
"t c #D8B000",
"y c #F8F000",
"p c #F88058",
"z c #485890",
"b c #00FF00",
"Y c #F8F8F8",
"I c #B8C8F0",
/* pixels */
"bbbbbbbbbbbbbbbbbbbbbbbbbbbbbbbb",
"bbbbbbbbbbbbbbbbbbbbbbbbbbbbbbbb",
"bbbbbbbbbbbbbbbbbbbbbbbbbbbbbbbb",
"bbbbbbbbbbbbbbbbbbbbbbbbbbbbbbbb",
"bbbbbbbbbbbbbbbbbbbbbbbbbbbbbbbb",
"bbbbbbbbbbbbbbbbbbbbbbbbbbbbbbbb",
"bbbbbbbbbbbbbbbbb    bbbbbbbbbbb",
"bbbbbbbbbbbbbbbb ;pp; bbbbbbbbbb",
"bbbbbbbbbbbbbbb ;pppp; bbbbbbbbb",
"bbbbbbbbbbbbbbb pppppp  bbbbbbbb",
"bbbbbb;bbbbbbb ;pppp;pp; bbbbbbb",
"bbbbbbb;bbbbbb ;ppp Yppp; bbbbbb",
"bbbbbbb;;bbbbb ;ppz  pppp bbbbbb",
"bbbbbb;y;;bbb ;ppp;z ppp; bbbbbb",
"bbbbb;yy;bbb ;pppppppp;* bbbbbbb",
"bbbbbpyypbbb ;pppppp;;*  bbbbbbb",
"bbbbbbbYpbbb pppp;pppp; bbbbbbbb",
"bbbbbb p bb ;pp*pp;t   bbbbbbbbb",
"bbbbbb p bb ;pp*;p;y bbbbbbbbbbb",
"bbbbbb p bb ;p;;*p;t bbbbbbbbbbb",
"bbbbbbb p  *;;;;**t: bbbbbbbbbbb",
"bbbbbbb ;pp;*;ppp;: bbbbbbbbbbbb",
"bbbbbbbb ;;; *;ppp;I bbbbbbbbbbb",
"bbbbbbbbbbb   *;p;  bbbbbbbbbbbb",
"bbbbbbbbbbbbb ;;;* bbbbbbbbbbbbb",
"bbbbbbbbbbbbbb  ppY bbbbbbbbbbbb",
"bbbbbbbbbbbbbbbb   bbbbbbbbbbbbb",
"bbbbbbbbbbbbbbbbbbbbbbbbbbbbbbbb",
"bbbbbbbbbbbbbbbbbbbbbbbbbbbbbbbb",
"bbbbbbbbbbbbbbbbbbbbbbbbbbbbbbbb",
"bbbbbbbbbbbbbbbbbbbbbbbbbbbbbbbb",
"bbbbbbbbbbbbbbbbbbbbbbbbbbbbbbbb",
"bbbbbbbbbbbbbbbbbbbbbbbbbbbbbbbb",