/* XPM */
static char *result[] = {
/* columns rows colors chars-per-pixel */
"24 24 18 1 ",
"  c black",
"* c #980000",
"; c #D03800",
": c #A06800",
"t c #D8B000",
"y c #F8F000",
"p c #F88058",
"z c #485890",
"b c #0000",
"Y c #F8F8F8",
"I c #B8C8F0",
"e c #42944A",
"f c #5ABD4A",
"g c #63D66B",
"h c #6BAD29",
"k c #94C618",
"m c #529C39",
"o c #9CD65A",
/* pixels */
"efegeefehhmmmmeemeefmgfh",
"fmgfhmfemhkhgeefemfemfef",
"megfhmf    gfmmeemehmefe",
"eefmke ;pp; ekokgmmmhmfe",
"meehh ;pppp; hfmfemhkkee",
"hhme  pppppp femfefmhmme",
"mkh ;pp;pppp; mmeegem;ff",
"em ;pppY ppp; mhkhff;mme",
"em pppp  zpp; memee;;hme",
"eh ;ppp z;ppp; fem;;y;hf",
"mhk *;pppppppp; eeg;yy;e",
"hko  *;;pppppp; egfpyype",
"hmmf ;pppp;pppp mgepYeem",
"mmege   t;pp*pp; fe p he",
"hhmfgmm y;p;*pp; ee p mh",
"mhmegmk t;p*;;p; ee p em",
"emmmfeh :t**;;;;*  p eee",
"mghhmemh :;ppp;*;pp; eem",
"mfgmmmm I;ppp;* ;;; mfem",
"mmgemfem  ;p;*   khmegme",
"gmefmeemf *;;; emmemgemf",
"gemfemee Ypp  egeeeegmef",
"egmemmefe   fmgehokefeee",
"mgmmmhmfhkkmfmgefmmfemhe",