/* XPM */
static char *result[] = {
/* columns rows colors chars-per-pixel */
"24 24 11 1 ",
"  c black",
"* c #980000",
"; c #D03800",
": c #A06800",
"t c #D8B000",
"y c #F8F000",
"p c #F88058",
"z c #485890",
"b c #0000",
"Y c #F8F8F8",
"I c #B8C8F0",
/* pixels */
"bbbbbbbbbbbbbbbbbbbbbbbb",
"bbbbbbbbbbbbbbbbbbbbbbbb",
"bbbbbbb    bbbbbbbbbbbbb",
"bbbbbb ;pp; bbbbbbbbbbbb",
"bbbbb ;pppp; bbbbbbbbbbb",
"bbbb  pppppp bbbbbbbbbbb",
"bbb ;pp;pppp; bbbbbbb;bb",
"bb ;pppY ppp; bbbbbb;bbb",
"bb pppp  zpp; bbbbb;;bbb",
"bb ;ppp z;ppp; bbb;;y;bb",
"bbb *;pppppppp; bbb;yy;b",
"bbb  *;;pppppp; bbbpyypb",
"bbbb ;pppp;pppp bbbpYbbb",
"bbbbb   t;pp*pp; bb p bb",
"bbbbbbb y;p;*pp; bb p bb",
"bbbbbbb t;p*;;p; bb p bb",
"bbbbbbb :t**;;;;*  p bbb",
"bbbbbbbb :;ppp;*;pp; bbb",
"bbbbbbb I;ppp;* ;;; bbbb",
"bbbbbbbb  ;p;*   bbbbbbb",
"bbbbbbbbb *;;; bbbbbbbbb",
"bbbbbbbb Ypp  bbbbbbbbbb",
"bbbbbbbbb   bbbbbbbbbbbb",
"bbbbbbbbbbbbbbbbbbbbbbbb",
"bbbbbbbbbbbbbbbbbbbbbbbb",