/* XPM */
static char *result[] = {
/* columns rows colors chars-per-pixel */
"32 32 11 1 ",
"  c black",
"* c #980000",
"; c #D03800",
": c #A06800",
"t c #D8B000",
"y c #F8F000",
"p c #F88058",
"z c #485890",
"b c #0000",
"Y c #F8F8F8",
"I c #B8C8F0",
/* pixels */
"bbbbbbbbbbbbbbbbbbbbbbbbbbbbbbbb",
"bbbbbbbbbbbbbbbbbbbbbbbbbbbbbbbb",
"bbbbbbbbbbbbbbbbbbbbbbbbbbbbbbbb",
"bbbbbbbbbbbbbbbbbbbbbbbbbbbbbbbb",
"bbbbbbbbbbbbbbbbbbbbbbbbbbbbbbbb",
"bbbbbbbbbbbbbbbbbbbbbbbbbbbbbbbb",
"bbbbbbbbbbb    bbbbbbbbbbbbbbbbb",
"bbbbbbbbbb ;pp; bbbbbbbbbbbbbbbb",
"bbbbbbbbb ;pppp; bbbbbbbbbbbbbbb",
"bbbbbbbb  pppppp bbbbbbbbbbbbbbb",
"bbbbbbb ;pp;pppp; bbbbbbb;bbbbbb",
"bbbbbb ;pppY ppp; bbbbbb;bbbbbbb",
"bbbbbb pppp  zpp; bbbbb;;bbbbbbb",
"bbbbbb ;ppp z;ppp; bbb;;y;bbbbbb",
"bbbbbbb *;pppppppp; bbb;yy;bbbbb",
"bbbbbbb  *;;pppppp; bbbpyypbbbbb",
"bbbbbbbb ;pppp;pppp bbbpYbbbbbbb",
"bbbbbbbbb   t;pp*pp; bb p bbbbbb",
"bbbbbbbbbbb y;p;*pp; bb p bbbbbb",
"bbbbbbbbbbb t;p*;;p; bb p bbbbbb",
"bbbbbbbbbbb :t**;;;;*  p bbbbbbb",
"bbbbbbbbbbbb :;ppp;*;pp; bbbbbbb",
"bbbbbbbbbbb I;ppp;* ;;; bbbbbbbb",
"bbbbbbbbbbbb  ;p;*   bbbbbbbbbbb",
"bbbbbbbbbbbbb *;;; bbbbbbbbbbbbb",
"bbbbbbbbbbbb Ypp  bbbbbbbbbbbbbb",
"bbbbbbbbbbbbb   bbbbbbbbbbbbbbbb",
"bbbbbbbbbbbbbbbbbbbbbbbbbbbbbbbb",
"bbbbbbbbbbbbbbbbbbbbbbbbbbbbbbbb",
"bbbbbbbbbbbbbbbbbbbbbbbbbbbbbbbb",
"bbbbbbbbbbbbbbbbbbbbbbbbbbbbbbbb",
"bbbbbbbbbbbbbbbbbbbbbbbbbbbbbbbb",
"bbbbbbbbbbbbbbbbbbbbbbbbbbbbbbbb",