/* XPM */
static char *result[] = {
/* columns rows colors chars-per-pixel */
"32 32 10 1 ",
"  c black",
"* c #980000",
"; c #D03800",
": c #A06800",
"t c #D8B000",
"y c #F8F000",
"p c #F88058",
"z c #485890",
"b c #0000",
"Y c #F8F8F8",
/* pixels */
"bbbbbbbbbbbbbbbbbbbbbbbbbbbbbbbb",
"bbbbbbbbbbbbbbbbbbbbbbbbbbbbbbbb",
"bbbbbbbbbbbbbbbbbbbbbbbbbbbbbbbb",
"bbbbbbbbbbbbbbbbbbbbbbbbbbbbbbbb",
"bbbbbbbbbbbbbbbbbbbbbbbbbbbbbbbb",
"bbbbbbbbbbbbbbbbbbbbbbbbbbbbbbbb",
"bbbbbbbbbbbbbbbbbbbbbbbbbbbbbbbb",
"bbbbbbbbbbbbb     bbbbbbbbbbbbbb",
"bbbbbbbbbbbb ;ppp; bbbbbbbbbbbbb",
"bbbbbbbbbbb ;ppppp; bbbbbbbbbbbb",
"bbbbbbbbbbb ppppppp bbbbbbbbbbbb",
"bbbbbbbbbb ;ppppppp; bbbbbbbbbbb",
"bbbbbbbbbb ppppppppp bbbbbbbbbbb",
"bbbbbbbbbb ppppppppp bbbbbbbbbbb",
"bbbbbbbbbb ;ppppppp; bbbbbbbbbbb",
"bbbbbbbbbbb ;ppppp; bbbbbbbbbbbb",
"bbbbbbbbbb ;;pppppp; bbbbbbbbbbb",
"bbbbbbbbb pp;pppppppp bbbbbbbbbb",
"bbbbbbbb p;yp;ppppp ;p bbbbbbbbb",
"bbbbbbbb ;;yy;ppppp; ; bbbbbbbbb",
"bbbbbbbbb ;py;ppppp;  bbbbbbbbbb",
"bbbbbbbbb p;Y;pppp;p; bbbbbbbbbb",
"bbbbbbbbb p p pppp;;p bbbbbbbbbb",
"bbbbbbbb Y; p ppp;;*;Y bbbbbbbbb",
"bbbbbbbbb p p ;pp; ;p bbbbbbbbbb",
"bbbbbbbbbb  ;p p;    bbbbbbbbbbb",
"bbbbbbbbbbb ;ppp; bbbbbbbbbbbbbb",
"bbbbbbbbbbbb ;;; bbbbbbbbbbbbbbb",
"bbbbbbbbbbbbb   bbbbbbbbbbbbbbbb",
"bbbbbbbbbbbbbbbbbbbbbbbbbbbbbbbb",
"bbbbbbbbbbbbbbbbbbbbbbbbbbbbbbbb",
"bbbbbbbbbbbbbbbbbbbbbbbbbbbbbbbb",
"bbbbbbbbbbbbbbbbbbbbbbbbbbbbbbbb",