/* XPM */
static char *result[] = {
/* columns rows colors chars-per-pixel */
"24 24 10 1 ",
"  c black",
"* c #980000",
"; c #D03800",
": c #A06800",
"t c #D8B000",
"y c #F8F000",
"p c #F88058",
"z c #485890",
"b c #0000",
"Y c #F8F8F8",
/* pixels */
"bbbbbbbbbbbbbbbbbbbbbbbb",
"bbbbb;bbbbbbbbbbbbbbbbbb",
"bbbb;bbbbbbbbbbbbbbbbbbb",
"bbb;;;bbbb     bbbbbbbbb",
"bbb;;y;bb ;ppp; bbbbbbbb",
"bbb;pp;b ;ppppp; bbbbbbb",
"bbbppypb ppppppp bbbbbbb",
"bbppyyp ;ppppppp; bbbbbb",
"bbbpYpb Y pppppY  bbbbbb",
"bbb p b   ppppp   bbbbbb",
"bbb ; b z ppppp z  bbbbb",
"bbb ; b ppppppppp  bbbbb",
"bbb ;;  ;ppppppp;  bbbbb",
"bbbb  ;p ;ppppp; p; bbbb",
"bbbb ;p;* *;;;* *;p; bbb",
"bbbb p; ;;     ;; ;p bbb",
"bbbbb   ;tt:::::;   bbbb",
"bbbbbb *;tytttt:;* bbbbb",
"bbbbbb ;p*tytt:*p; bbbbb",
"bbbbbbb ***:::*** bbbbbb",
"bbbbbb ;p;;   ;;p; bbbbb",
"bbbbbb Y Y bbb Y Y bbbbb",
"bbbbbb  b bbbbb b bbbbbb",
"bbbbbbbbbbbbbbbbbbbbbbbb",
"bbbbbbbbbbbbbbbbbbbbbbbb",