/* XPM */
static char *result[] = {
/* columns rows colors chars-per-pixel */
"24 24 18 1 ",
"  c black",
"* c #980000",
"; c #D03800",
": c #A06800",
"t c #D8B000",
"y c #F8F000",
"p c #F88058",
"z c #485890",
"b c #0000",
"Y c #F8F8F8",
"I c #B8C8F0",
"e c #42944A",
"f c #5ABD4A",
"g c #63D66B",
"h c #6BAD29",
"k c #94C618",
"m c #529C39",
"o c #9CD65A",
/* pixels */
"hfgmfeemeemmmmhhefeegefe",
"fefmefmefeeghkhmefmhfgmf",
"efemhemeemmfg    fmhfgem",
"efmhmmmgkoke ;pp; ekmfee",
"eekkhmefmfh ;pppp; hheem",
"emmhmfefmef pppppp  emhh",
"ff;megeemm ;pppp;pp; hkm",
"emm;ffhkhm ;ppp Yppp; me",
"emh;;eemem ;ppz  pppp me",
"fh;y;;mef ;ppp;z ppp; he",
"e;yy;gee ;pppppppp;* khm",
"epyypfge ;pppppp;;*  okh",
"meeYpegm pppp;pppp; fmmh",
"eh p ef ;pp*pp;t   egemm",
"hm p ee ;pp*;p;y mmgfmhh",
"me p ee ;p;;*p;t kmgemhm",
"eee p  *;;;;**t: hefmmme",
"mee ;pp;*;ppp;: hmemhhgm",
"mefm ;;; *;ppp;I mmmmgfm",
"emgemhk   *;p;  mefmegmm",
"fmegmemme ;;;* fmeemfemg",
"femgeeeege  ppY eemefmeg",
"eeefekohegmf   efemmemge",
"ehmefmmfegmfmkkhfmhmmmgm", 