/* XPM */
static char *result[] = {
/* columns rows colors chars-per-pixel */
"24 24 17 1 ",
"  c black",
"* c #980000",
"; c #D03800",
": c #A06800",
"t c #D8B000",
"y c #F8F000",
"p c #F88058",
"z c #485890",
"b c #0000",
"Y c #F8F8F8",
"e c #42944A",
"f c #5ABD4A",
"g c #63D66B",
"h c #6BAD29",
"k c #94C618",
"m c #529C39",
"o c #9CD65A",
/* pixels */
"efegeefehhmmmmeemeefmgfh",
"fmgfh;femhkhgeefemfemfef",
"megf;mfeefhgfmmeemehmefe",
"eef;;;eefe     kgmmmhmfe",
"mee;;y;me ;ppp; femhkkee",
"hhm;pp;m ;ppppp; efmhmme",
"mkhppypm ppppppp egemmff",
"emppyyp ;ppppppp; fffmme",
"emhpYpm Y pppppY  eehhme",
"ehh p e   ppppp   ehhkhf",
"mhk ; e z ppppp z  kkmme",
"hko ; m ppppppppp  ehmme",
"hmm ;;  ;ppppppp;  efeem",
"mmeg  ;p ;ppppp; p; gmhe",
"hhmf ;p;* *;;;* *;p; mmh",
"mhme p; ;;     ;; ;p mem",
"emmmf   ;tt:::::;   eeee",
"mghhme *;tytttt:;* mheem",
"mfgmmm ;p*tytt:*p; kmfem",
"mmgemfe ***:::*** hmegme",
"gmefme ;p;;   ;;p; mgemf",
"gemfem Y Y hhg Y Y egmef",
"egmemm  m fmgeh o kefeee",
"mgmmmhmfhkkmfmgefmmfemhe",