/* XPM */
static char *result[] = {
/* columns rows colors chars-per-pixel */
"24 24 240 2 ",
"   c #010101",
".  c gray3",
"X  c #1B1B1B",
"o  c #121717",
"O  c #00182B",
"+  c #000030",
"@  c #313131",
"#  c gray22",
"$  c #353939",
"%  c #242928",
"&  c #220E0E",
"*  c #401808",
"=  c #471200",
"-  c #581008",
";  c #5B2500",
":  c #483017",
">  c #703800",
",  c #692F14",
"<  c #48102F",
"1  c #0C6C00",
"2  c #217029",
"3  c #001040",
"4  c #00264E",
"5  c #383040",
"6  c #001266",
"7  c #1A2368",
"8  c #502878",
"9  c #463062",
"0  c #652A5A",
"q  c #384040",
"w  c #314854",
"e  c #004C64",
"r  c #335266",
"t  c #006F6E",
"y  c #525252",
"u  c #585858",
"i  c #474548",
"p  c #605860",
"a  c #536164",
"s  c #706870",
"d  c #7A7A7A",
"f  c #717070",
"g  c #686867",
"h  c #4E5F56",
"j  c #785018",
"k  c #850000",
"l  c #980000",
"z  c #930007",
"x  c #801818",
"c  c #A5000B",
"v  c #8A370B",
"b  c #97002E",
"n  c #A02028",
"m  c #B12912",
"M  c #FB0013",
"N  c #D03800",
"B  c #CA2F05",
"V  c #F51325",
"C  c #874400",
"Z  c #985800",
"A  c #945203",
"S  c #954212",
"D  c #A55916",
"F  c #B95606",
"G  c #996600",
"H  c #987000",
"J  c #AD6806",
"K  c #91482E",
"L  c #B87020",
"P  c #D36F14",
"I  c #D06135",
"U  c #F87838",
"Y  c #D85925",
"T  c #E1254C",
"R  c #E03860",
"E  c #CE3364",
"W  c #984848",
"Q  c #AE6A55",
"!  c #AE4068",
"~  c #886771",
"^  c #B34D4D",
"/  c #D05858",
"(  c #C85050",
")  c #C06840",
"_  c #F37850",
"`  c #F96A45",
"'  c #D26D66",
"]  c #B03070",
"[  c #009A00",
"{  c #2A8F00",
"}  c #059A31",
"|  c #45AE14",
" . c #58B020",
".. c #00FF00",
"X. c #28D030",
"o. c #66CE35",
"O. c #64CA06",
"+. c #168E60",
"@. c #40B040",
"#. c #66965F",
"$. c #33D069",
"%. c #66FF65",
"&. c #71D95A",
"*. c #A88018",
"=. c #B88800",
"-. c #B38B28",
";. c #C38800",
":. c #C99800",
">. c #C89000",
",. c #FE8B00",
"<. c #D4A301",
"1. c #D8B000",
"2. c #C7A000",
"3. c #F99E2A",
"4. c #9AFF00",
"5. c #F2C90A",
"6. c #FBF200",
"7. c #FDFD00",
"8. c #F8F008",
"9. c #EFE202",
"0. c #EFCA23",
"q. c #D79A4E",
"w. c #F88454",
"e. c #F9986D",
"r. c #D3A865",
"t. c #EEAF6A",
"y. c #CFB44D",
"u. c #97F865",
"i. c #E8C050",
"p. c #F7ED4F",
"a. c #F9D068",
"s. c #F9F16F",
"d. c #B09070",
"f. c #050185",
"g. c #3C0089",
"h. c #002187",
"j. c #1B2F9E",
"k. c #560698",
"l. c #007180",
"z. c #0060B0",
"x. c #194AA5",
"c. c #485890",
"v. c #667380",
"b. c #5D5E8D",
"n. c #0000C6",
"m. c #7800CC",
"M. c #096CCE",
"N. c #1668DA",
"B. c #6464F2",
"V. c #8D2390",
"C. c #FF0090",
"Z. c #806890",
"A. c #A35DA9",
"S. c #F77297",
"D. c #DC5F9D",
"F. c #9400CD",
"G. c #A534FF",
"H. c #D134FF",
"J. c #CD00F9",
"K. c #FF66FF",
"L. c #C856CD",
"P. c #A248D7",
"I. c #008080",
"U. c #109098",
"Y. c #08A098",
"T. c #788890",
"R. c #6D808B",
"E. c #6080A8",
"W. c #4FADA7",
"Q. c #1DC9A8",
"!. c #78F888",
"~. c #78E8A0",
"^. c #1898E0",
"/. c #068EF0",
"(. c #30B5F7",
"). c #309BDB",
"_. c #4593E1",
"`. c #58A0E0",
"'. c #64A2CF",
"]. c #2FC9FE",
"[. c #18E8C8",
"{. c #75D3F6",
"}. c #6CF0FC",
"|. c #4EE4FB",
" X c #808080",
".X c #878789",
"XX c #989898",
"oX c #929292",
"OX c #88908D",
"+X c #839CA5",
"@X c #9090A8",
"#X c #9BA4AB",
"$X c #94A6B2",
"%X c #A8A8A0",
"&X c #A8A8A8",
"*X c #B5B5B5",
"=X c #A8B0B8",
"-X c #80B088",
";X c #F88880",
":X c #FD9996",
">X c #E09385",
",X c #E1B983",
"<X c #FFB99C",
"1X c #F78BAC",
"2X c #D0B29E",
"3X c #96DFA9",
"4X c #FAE086",
"5X c #FBFB97",
"6X c #F8F58A",
"7X c #D0E8A0",
"8X c #F8F8AB",
"9X c #E6D89D",
"0X c #A9B9C3",
"qX c #9999FF",
"wX c #AF8ACA",
"eX c #FFB9CC",
"rX c #C393FF",
"tX c #FD93FD",
"yX c #D68FDA",
"uX c #B6C0C5",
"iX c #B8C0D0",
"pX c #B0E0C0",
"aX c #8ED4FA",
"sX c #B0F1FD",
"dX c #9AE8E9",
"fX c #C6C6C6",
"gX c #C8C8C8",
"hX c #C8D0C0",
"jX c #D8D8D8",
"kX c #D3D5D5",
"lX c #CCD6D6",
"zX c #FBC9CE",
"xX c #F4CCF6",
"cX c #D7E6E6",
"vX c #C7F0FC",
"bX c #E8F0E0",
"nX c #FDFDFD",
"mX c #F5F5F1",
"MX c #E5E2E2",
"NX c #EAEACE",
/* pixels */
".p  XZ. X X X XZ. X XZ. X X X X X X X X X X X X ",
" X# 5 5 5 5 5 5 5 # # 5 5 5 5 5 5 5 5 %X%X%X%X X",
"T.5 5 5 5 5 5 5 5 5 # 5 5 5 5 5 5 5 5 %X%X%X%X X",
" X5 5 5 X 5 5 o X X o X X o X  X X Xp hX%X%X%X X",
" X5 5 5 5 5 5 5 5 # @ 5 # # 5 %X%X Xp hX%X%X%X X",
" XX 5 o o X & o X X o Z. Xp p hX%X Xp hX%X%X%X X",
" X5 5 5 X # o X X o X %X X Xp hX%X Xp hXhXhX%X X",
" Xo X o X X X Z.p p p hX X Xp hX%X Xp bXhXhX%X X",
" X            %X X Xp hX%X Xp hXhX%Xp bXhXhX%X X",
" X    p p p p %X X Xp hX%X Xp hXhX%Xp hX%X%X%X X",
" X  X  Xp p p %X%X Xp hXhX%Xp hXhX%Xp bXhXhX%X X",
"Z.p u %X Xp p %X%X Xp hXhX%Xp hX%X%Xp hXhXhX%X X",
"v.p p %X X Xp %X X Xp hX%X Xp hXhX%Xp bXhXhXhX X",
".Xp p %X X Xp %X%X Xp hXhX%Xp hX%X%Xp bXhXhX%X X",
" Xp p %X X Xp %X X Xp hX%X Xp hXhX%Xp bXhXhXhX X",
".Xp p p p p p %X Xp p hX%X Xp hXhX%Xp hX%X%X%X X",
" Xp p  X Xp p %X%X Xp hXhX%Xu hXhX%Xp bXhXhX%X X",
" Xp p %X X Xp %X%X Xp hXhX%Xp hX%X%Xp bXhXhX%X X",
" Xp p %X X Xp %X X Xp hX%X Xp hXhX%Xp bXhXhXhX X",
" Xp p p p p p %X Xp p hX%X Xp hXhX%Xp hX%X%X%X X",
"%Xp p  X Xp p %X%X Xp hXhX%Xp hXhX%Xp hXhXhX%X X",
"%X Xp %X X Xp %X%X Xp hXhX%Xp hX%X&Xp hXhXhX%X X",
"hX Xp %X%X Xp %X X Xp %X%X Xp hXhX%Xp bXhXhXhX X",
"hXhX%X%X%X%X%X X X X X X X X X X X X X X X X X X",