/* XPM */
static char *result[] = {
/* columns rows colors chars-per-pixel */
"24 24 110 2 ",
"   c black",
".  c #010101",
"X  c gray13",
"o  c #007400",
"O  c #187B18",
"+  c #184A21",
"@  c #186329",
"#  c #297339",
"$  c #704800",
"%  c #735229",
"&  c #635A39",
"*  c #293173",
"=  c #427B42",
"-  c #8C0000",
";  c #9C5A08",
":  c #A56B39",
">  c #BD215A",
",  c #84006B",
"<  c #84634A",
"1  c #E7525A",
"2  c #009C00",
"3  c #299439",
"4  c #21A521",
"5  c #29A529",
"6  c #39B539",
"7  c #428C00",
"8  c #63AD18",
"9  c #73B518",
"0  c #528C39",
"q  c #529C39",
"w  c #6BAD29",
"e  c #29D631",
"r  c #73E731",
"t  c #39B542",
"y  c #42944A",
"u  c #4ABD4A",
"i  c #5ABD4A",
"p  c #42A552",
"a  c #5AAD5A",
"s  c #42A563",
"d  c #5ACE42",
"f  c #5ACE5A",
"g  c #63D66B",
"h  c #6BD66B",
"j  c #D68408",
"k  c #C09000",
"l  c #EFB500",
"z  c #94C618",
"x  c #F0D800",
"c  c #F7DE00",
"v  c #F8E838",
"b  c #8C844A",
"n  c #F78C52",
"m  c #9CD65A",
"M  c #FFC663",
"N  c #F8F878",
"B  c #21218C",
"V  c #394A8C",
"C  c #424ABD",
"Z  c #4252BD",
"A  c #4A63AD",
"S  c #2929C6",
"D  c #3131FF",
"F  c #3963DE",
"G  c #396BDE",
"H  c #3163E7",
"J  c #4A52C6",
"K  c #4A5AC6",
"L  c #4273CE",
"P  c #4273D6",
"I  c #4252FF",
"U  c #526BFF",
"Y  c magenta",
"T  c #008080",
"R  c #42B5B5",
"E  c #3984CE",
"W  c #2984D6",
"Q  c #2984DE",
"!  c #3184D6",
"~  c #3984D6",
"^  c #299CD6",
"/  c #3194D6",
"(  c #319CD6",
")  c #29A5D6",
"_  c #31ADDE",
"`  c #39ADDE",
"'  c #39B5E7",
"]  c #5A84C6",
"[  c #638CFF",
"{  c #42B5E7",
"}  c #73A5FF",
"|  c #7BB5FF",
" . c #63CECE",
".. c #7BDEDE",
"X. c #84E784",
"o. c #ADEFAD",
"O. c #B5F7B5",
"+. c #F8F8B8",
"@. c #94C6FF",
"#. c #B5CEFF",
"$. c #A5D6FF",
"%. c #80FFFF",
"&. c #BDE7FF",
"*. c #BDFFFF",
"=. c #CEF7FF",
"-. c gray94",
";. c #F7FFF7",
":. c #F8F8F8",
">. c #FEFEFE",
",. c white",
/* pixels */
"y i y g y y i y w w q q q q y y q y y i q g i w ",
"i q g i w q i y q w z w g y y i y q i y q i y i ",
"q y g i w q i y y i w g i q q y y q y w q y i y ",
"y y i q z y y y i y y g y z m z g q q q w q i y ",
"q y y w w y y q y q y i q w i q i y q w z z y y ",
"w w q y y g y q q y i y z i y q i y i q w q q y ",
"q z w q g i y q w y i q w i q q y y g y q q i i ",
"y q q y g y q y q q y y y q q w z w i i i q q y ",
"y q w q i y q y w w q y y y q y q y y y w w q y ",
"y w w y y y y q z w i q w w w i y q y w w z w i ",
"q w z w y q y q i y i y g w y y y y g z z q y y ",
"w z m z w q q q y y y g i z i y y g i y w q q y ",
"w q q i q z w y y y y g q w g y q g y y i y y q ",
"q q y g y y q w q q y i w g i q y i y i g q w y ",
"w w q i g q q y q w q y w g q y y y y g i q q w ",
"q w q y g q z m w z w w q q y y q y y i w q y q ",
"y q q q i y w z z z w q y q q y y y w y y y y y ",
"q g w w q y q w w w z z w y i y q q w q w y y q ",
"q i g q q q q q w w q y q i y q w z m z q i y q ",
"q q g y q i y q y w w q y g q y z z w q y g q y ",
"g q y i q y y q i z z w g y q y q q y q g y q i ",
"g y q i y q y y i w w w g q y g y y y y g q y i ",
"y g q y q q y i y q w q i q g y w m z y i y y y ",
"q g q q q w q i w z z q i q g y i q q i y q w y ",