/* XPM */
static char *result[] = {
/* columns rows colors chars-per-pixel */
"24 24 110 2 ",
"   c black",
".  c #010101",
"X  c gray13",
"o  c #007400",
"O  c #187B18",
"+  c #184A21",
"@  c #186329",
"#  c #297339",
"$  c #704800",
"%  c #735229",
"&  c #635A39",
"*  c #293173",
"=  c #427B42",
"-  c #8C0000",
";  c #9C5A08",
":  c #A56B39",
">  c #BD215A",
",  c #84006B",
"<  c #84634A",
"1  c #E7525A",
"2  c #009C00",
"3  c #299439",
"4  c #21A521",
"5  c #29A529",
"6  c #39B539",
"7  c #428C00",
"8  c #63AD18",
"9  c #73B518",
"0  c #528C39",
"q  c #529C39",
"w  c #6BAD29",
"e  c #29D631",
"r  c #73E731",
"t  c #39B542",
"y  c #42944A",
"u  c #4ABD4A",
"i  c #5ABD4A",
"p  c #42A552",
"a  c #5AAD5A",
"s  c #42A563",
"d  c #5ACE42",
"f  c #5ACE5A",
"g  c #63D66B",
"h  c #6BD66B",
"j  c #D68408",
"k  c #C09000",
"l  c #EFB500",
"z  c #94C618",
"x  c #F0D800",
"c  c #F7DE00",
"v  c #F8E838",
"b  c #8C844A",
"n  c #F78C52",
"m  c #9CD65A",
"M  c #FFC663",
"N  c #F8F878",
"B  c #21218C",
"V  c #394A8C",
"C  c #424ABD",
"Z  c #4252BD",
"A  c #4A63AD",
"S  c #2929C6",
"D  c #3131FF",
"F  c #3963DE",
"G  c #396BDE",
"H  c #3163E7",
"J  c #4A52C6",
"K  c #4A5AC6",
"L  c #4273CE",
"P  c #4273D6",
"I  c #4252FF",
"U  c #526BFF",
"Y  c magenta",
"T  c #008080",
"R  c #42B5B5",
"E  c #3984CE",
"W  c #2984D6",
"Q  c #2984DE",
"!  c #3184D6",
"~  c #3984D6",
"^  c #299CD6",
"/  c #3194D6",
"(  c #319CD6",
")  c #29A5D6",
"_  c #31ADDE",
"`  c #39ADDE",
"'  c #39B5E7",
"]  c #5A84C6",
"[  c #638CFF",
"{  c #42B5E7",
"}  c #73A5FF",
"|  c #7BB5FF",
" . c #63CECE",
".. c #7BDEDE",
"X. c #84E784",
"o. c #ADEFAD",
"O. c #B5F7B5",
"+. c #F8F8B8",
"@. c #94C6FF",
"#. c #B5CEFF",
"$. c #A5D6FF",
"%. c #80FFFF",
"&. c #BDE7FF",
"*. c #BDFFFF",
"=. c #CEF7FF",
"-. c gray94",
";. c #F7FFF7",
":. c #F8F8F8",
">. c #FEFEFE",
",. c white",
/* pixels */
"7 0 7 p 7 7 7 9 q q # # @ @ 7 q q 7 7 p 0 q q q ",
"0 0 p p q 0 q q 0 # 3 d d 3 @ @ 7 0 p 7 7 7 q q ",
"q q p 0 9 0 7 # t 3 3 d r d 3 3 @ @ 7 q 9 9 q 7 ",
"7 7 p 0 9 q # t @ r r 3 d r 3 @ 3 @ 0 0 q 0 0 7 ",
"0 7 7 q q 7 # @ r r t t 3 3 @ + @ 3 + 7 7 q 9 7 ",
"9 q 0 7 7 # 3 @ r 3 r r @ 3 t @ + + + + 7 0 0 p ",
"0 9 q 0 3 t 5 3 3 t r t + 3 t t + + @ + + 7 p 0 ",
"7 7 7 # t t 3 d d t t @ + + 3 t @ + @ 3 @ 0 0 7 ",
"7 q 7 # 5 3 r d d t 3 3 3 @ @ 3 @ @ + @ 3 + q q ",
"q 7 # @ @ r d d 3 t t 3 d 3 @ @ 5 @ + + + + 0 p ",
"0 7 # 3 @ r 3 @ r r d t r d 3 @ 5 5 @ + @ + + 7 ",
"q # 3 3 @ + + r r d t 3 r d t @ @ 5 3 + @ @ + 7 ",
"3 # @ @ 3 % @ r t 5 3 3 3 d @ + + @ 3 + + + 3 0 ",
"3 3 @ t 3 : % t @ 3 5 3 @ 3 @ + % % + + + @ + 7 ",
"q @ t 5 3 3 % @ @ 3 t 5 3 @ + + % @ @ + + + @ + ",
"0 @ 5 3 t t : % + @ 5 t t @ + + + @ 3 @ + + @ + ",
"7 @ @ t t 3 @ + + + @ t 3 @ + + + + @ @ + + + + ",
"0 0 + t 3 + + @ p + + 3 @ + + + @ p + @ + @ + 0 ",
"0 7 @ + + @ + p 7 % + + @ + + % % @ p + + + @ @ ",
"0 @ @ t 0 + + t + % + % + % % + + @ p @ 0 p @ 0 ",
"p 0 @ 7 t @ + p + @ p % % : + @ + + @ t p @ 0 p ",
"p 7 p @ p t @ @ @ p t % : % + p + + t p @ t p 0 ",
"7 0 t @ 7 t @ + 7 p @ % : % % @ p @ t @ @ 0 t 0 ",
"0 p p 0 @ p 0 @ p % @ : % % @ 7 p + 0 0 7 @ p 0 ",